<svg class="section1 mobilecol img-fluid" version="1.1" id="a5f41e37-d8d4-4d60-9e97-29ee7ebe1bc1"
	 xmlns="http://www.w3.org/2000/svg" xmlns:xlink="http://www.w3.org/1999/xlink" x="0px" y="0px" viewBox="0 0 845.7 704"
	 style="enable-background:new 0 0 845.7 704;" xml:space="preserve">
<style type="text/css">
	.st0code{fill:#E6E6E6;}
	.st1code{fill:#FFFFFF;}
	.st2code{fill:#FFCC00;}
	.st3code{fill:#FEB8B8;}
	.st4code{fill:#2F2E41;}
	.st5code{fill:#F0F0F0;}
	.st6code{opacity:0.1;enable-background:new    ;}
</style>
<g id="humancode">
	<g id="codescreen">
		<rect id="e1abf0e4-070b-4c82-8a12-ebedd4e3db02" x="0.3" y="0.3" class="st0code" width="611.5" height="391.6"/>
		<rect id="ace8bea0-82e8-49b8-a50c-1e1cb532084f" x="19.7" y="49.5" class="st1code" width="576.5" height="319.3"/>
		<rect id="b540f353-e277-4512-bc56-a133cea2858b" class="st2code" width="611.5" height="26"/>
		<circle id="b2b285b5-c1c3-4b12-9710-2898c7239781" class="st1code" cx="19.3" cy="13.3" r="4.8"/>
		<circle id="a5a428bb-42a2-4f57-9e6c-9979c01a2490" class="st1code" cx="37.6" cy="13.3" r="4.8"/>
		<circle id="a9929a25-14ce-4464-bac9-4165f1e3fae6" class="st1code" cx="55.9" cy="13.3" r="4.8"/>
		<path id="a31271bd-8e2f-469b-8cee-8b6db3f92f99" class="st0code" d="M275.2,103.7c-3.1,0-5.6,1.8-5.6,4s2.5,4,5.6,4h266.2
			c3.1,0,5.6-1.8,5.6-4s-2.5-4-5.6-4H275.2z"/>
		<path id="bf577952-0fd5-43e0-be6b-ea1966b51a93" class="st0code" d="M538.8,323.1H90.9c-4.6,0-8.3-2.6-8.3-5.9v-79
			c0-3.3,3.7-5.9,8.3-5.9h447.8c4.6,0,8.3,2.6,8.3,5.9v79C547.1,320.5,543.3,323.1,538.8,323.1z M90.9,234.7c-2.7,0-5,1.6-5,3.5v79
			c0,2,2.2,3.5,5,3.5h447.8c2.7,0,5-1.6,5-3.5v-79c0-2-2.2-3.5-5-3.5L90.9,234.7z"/>
		<circle id="f7f4957b-eaa8-456b-bf02-bacf7de3ef80" class="st0code" cx="137" cy="277.7" r="20"/>
		<path id="fb0f055d-da6e-47f2-bb6d-7ff26d7b746a" class="st2code" d="M193.6,261.7c-2.2,0-4,1.8-4,4c0,2.2,1.8,4,4,4h188.9
			c2.2,0,4-1.8,4-4c0-2.2-1.8-4-4-4H193.6z"/>
		<path id="bfcde504-8c45-4d21-843b-87b1f7e22ce0" class="st2code" d="M193.6,285.7c-2.2,0-4,1.8-4,4c0,2.2,1.8,4,4,4h81.3
			c2.2,0,4-1.8,4-4c0-2.2-1.8-4-4-4H193.6z"/>
		<path id="a66699ea-75f1-4575-b6d5-52b0b1f8e30c" class="st0code" d="M273.3,127.7c-2.2,0.2-3.9,2.1-3.7,4.3c0.2,2,1.7,3.5,3.7,3.7
			h174.5c2.2-0.2,3.9-2.1,3.7-4.3c-0.2-2-1.7-3.5-3.7-3.7H273.3z"/>
		<path id="bbc4ca7b-25d4-4c7e-b3d4-0411f69bd48f" class="st0code" d="M274.4,151.7c-2.7,0-4.9,1.8-4.9,4c0,2.2,2.2,4,4.9,4h228.7
			c2.7,0,4.9-1.8,4.9-4c0-2.2-2.2-4-4.9-4H274.4z"/>
	</g>
	<g>
		<path id="a9e5a31c-10e6-4175-9779-4994367672f7" class="st3code" d="M703.6,664.8l-1.5,19.5l-29.8-9.8l12.2-14.6L703.6,664.8z"/>
		<path id="f499a4aa-6a35-40fc-8432-e4c7ab26d048" class="st3code" d="M811.9,658.4l-1.5,19l-16.6,2.4l-9.8-9.3l11.2-18.1L811.9,658.4z"
			/>
		<path id="fb70bf31-eafd-4d8a-8310-5130d8d104e1" class="st4code" d="M824.1,415.4c0,0,13.2,15.6-3.4,39.5
			c-16.6,23.9-36.6,47.3-36.6,47.3L747,572.5c0,0-19,68.8-23.4,70.8c-4.4,2-6.8-5.9-4.4,2.4c2.4,8.3,1,7.8-1,8.3s-7.3-0.5-5.4,2.9
			c2,3.4,3.4,3.4-0.5,3.4c-3.9,0-5.4-2.4-5.4,1s-3.4,11.2-3.4,11.2s-23.9-6.8-24.9-9.8c-1-2.9,6.3-4.4,4.9-7.3s-2-2.9-2-7.3
			s2.9-5.4,2.9-5.4s2.4-1,1.5-2.9c-1-2-4.9-1,0-3.4s24.9-77.1,24.9-77.1s0-37.1,6.3-49.3c6.3-12.2,1.5-99.1,16.6-100.1
			S824.1,415.4,824.1,415.4z"/>
		<path id="a89455c2-275d-4b70-b13c-192fbe474176" class="st4code" d="M819.3,443.2l-2.9,75.7c0,0,14.6,73.2,9.8,95.7
			s-1.5,19.5-4.4,23.4c-2.9,3.9-5.4,2-2.9,5.4c2.4,3.4,3.9,4.4,0,8.3s-5.9,13.2-5.9,13.2l-24.9-2.4c0,0,6.3-11.2,3.9-13.7
			s-8.8,1.5-3.9-3.9s7.8-2.9,4.9-5.4c-2.9-2.4-7.3-1.5-3.4-5.4c3.9-3.9,8.3-3.9,4.4-5.4s-8.3,0-6.3-2.9c2-2.9,4.4-6.3,4.4-6.3
			l-5.9-44.4c0,0-6.8-14.6-4.9-21s-8.3-58.6-8.3-58.6L819.3,443.2z"/>
		<path id="a3024be5-ad86-493a-9bfb-258ab58160a1" class="st4code" d="M808.5,668.2c0,0,4.9-4.9,6.3-2s12.2,29.3,5.9,31.2
			s-15.6,3.9-20.5,2.4s-15.1-8.3-27.3-8.3s-22.5-5.4-22.5-7.3s-2-13.7,7.3-13.7c9.3,0,26.4-10.7,26.4-10.7s3.9-7.8,5.9-7.3
			c2,0.5,0.5,16.1,0.5,16.1S801.7,679.4,808.5,668.2z"/>
		<path id="a57c92ce-496a-44de-934b-3ddd78679762" class="st4code" d="M700.2,674.5c0,0,4.4-10.7,8.8-8.3c4.4,2.4,1.5,32.7,1.5,32.7
			s-3.9,6.3-15.1,4.9s-41-4.9-47.8-3.4s-25.4-6.8-20.5-18.1c0,0,2.4-6.3,14.2-5.9c11.7,0.5,33.2-13.7,33.2-13.7s3.4-9.8,4.4-8.8
			c1,1,2,18.1,2,18.1S693.3,680.4,700.2,674.5z"/>
		<circle id="fa315d33-3eeb-4d45-ab88-aeb0e9694c5a" class="st3code" cx="764.1" cy="196.2" r="28.3"/>
		<path id="fbae87ba-2986-46ef-9932-134b7e0cae24" class="st3code" d="M786.1,198.1c0,0,15.1,30.3,20.5,33.2s-36.6,21-36.6,21
			s-6.8-29.8-15.1-36.1S786.1,198.1,786.1,198.1z"/>
		<path id="fc15680c-e415-4000-ac02-b1f296562473" class="st3code" d="M742.6,445.6l-2,18.5c0,0-21-7.3-14.2-21L742.6,445.6z"/>
		<path id="ae3770ab-4aa4-41b9-9f4d-4c69df699916" class="st5code" d="M734.3,417.8c14.6,15.6,92.2,2.4,92.2,2.4l-1-11.2l9.8-10.2
			l-2.9-47.8c0,0,8.8-22.5,10.2-56.6c0.1-2.1,0-4.2-0.4-6.3c-5-30.6-54.9-50.3-56.2-49.9c-0.7,0.2-8,4-15.7,8.1
			c-8.8,4.6-18,9.5-18,9.5c-11.7,4.4-9.8,74.7-13.7,81s0,28.3,0,28.3l-4.4,21C734.3,386.1,719.7,402.2,734.3,417.8z"/>
		<path id="b41fb511-fd5e-48e5-b733-0d9230f6b6d5" class="st6code" d="M781.6,262.8c0,0,13.7,41,10.7,68.8
			c-2.9,27.8-34.7,107.4-34.7,107.4l-10.7,5.9v13.7l-7.6-20.5l20.8-43.4C760.2,394.7,734.3,244.8,781.6,262.8z"/>
		<path id="efbdbf49-3b58-4bc5-8391-5fbab31acdf7" class="st6code" d="M768.8,250.5c14.2-7.8,35.6,12.7,58.1,34.7
			c8.1,7.9,12.7,7.1,15.4,2.8c-5-30.6-54.9-50.3-56.2-49.9c-0.7,0.2-8,4-15.7,8.1L768.8,250.5z"/>
		<path id="a2828270-d54b-4ede-bb2b-8639f55947f0" class="st5code" d="M768.8,246.8l5.9-16.1c0,0,40-19,66.4,0l4.4,27.3
			c0,0,3.9,45.4-18.5,23.4S783,239,768.8,246.8z"/>
		<path id="f68da632-d878-40c3-a103-67cfc5c970db" class="st5code" d="M780.2,256.2c0,0,13.7,41,10.7,68.8
			c-2.9,27.8-34.7,107.4-34.7,107.4l-10.7,5.9V452l-22.5-6.3l4.9-16.1c0,0-7.8-9.8-2.4-12.7s4.4-19,4.4-19S732.9,238.2,780.2,256.2z
			"/>
		<path id="f57115f6-7f5b-4177-880b-f5eff1305e5b" class="st4code" d="M789.3,208c-0.5-2.2-0.4-4.5-1.4-6.5c-1.6-3-5.2-4.2-8.5-4.5
			c-4.3-0.4-8.6,0.4-12.8,0.1s-8.8-1.9-11-5.6c-0.8-1.5-1.3-3.2-2.4-4.5c-2.3-2.7-6.6-2.3-10-1.1s-6.9,2.8-10.3,1.9
			c-2.9-8.1,0.7-17.4,6.8-23.4c6.2-6,14.5-9.2,22.7-11.6c10.9-3.2,23.1-5,33.1,0.3c14.5,7.7,19.6,28.2,18.3,43.4
			c-0.5,5.8-1.3,12.3-6,16.2C801.1,218.3,791.4,217.8,789.3,208z"/>
	</g>
	<a href="#middle">
		<g id="arrows" class="arrows">
			<rect x="70" y="87" class="st1code" width="128" height="90"/>
			<path id="b4a2d72b-abc3-4d2f-a2b8-a2aff6897b26" class="st2code" d="M120.6,94.2l-38.1,37.7l38.1,37.7l8.6-8.6l-28.8-28.8l29.1-29.1
				L120.6,94.2z"/>
			<path id="b5120d89-6cbe-4bfa-9a1b-cf9b07deff91" class="st2code" d="M151.9,94.2l38.1,37.7l-38.1,37.7l-8.6-8.6l28.8-28.8L143,103
				L151.9,94.2z"/>
		</g>
	</a>
</g>
</svg>
