<svg class="questionmark mobilecol img-fluid" version="1.1" id="question" xmlns="http://www.w3.org/2000/svg" xmlns:xlink="http://www.w3.org/1999/xlink" x="0px" y="0px"
	 viewBox="0 0 844.7 595.3" style="enable-background:new 0 0 844.7 595.3;" xml:space="preserve">
<style type="text/css">
	.st0question{fill:#F50057;}
	.st1question{fill:#F2F2F2;}
	.st2question{fill:#3F3D56;}
	.st3question{fill:#FFB8B8;}
	.st4question{fill:#2F2E41;}
	.st5question{fill:#CCCCCC;}
</style>
<g>
	<circle class="st0question" cx="431.2" cy="542.9" r="45.1"/>
	<path class="st1question" d="M700.4,585.4c25.2-7.6,52-15.5,72-33.5c17.9-16.1,29.9-40.6,22.5-64.8c-7.4-24.1-29.5-40.1-52.3-48.1
		c-13-4.5-26.5-7-40.1-9c-14.7-2.1-29.5-3.9-44.3-5.6c-59.9-6.8-120-11-180.3-12.5c-29.8-0.7-59.5-0.7-89.3-0.3
		c-26.6,0.4-54.6,0.4-79.2-10.9c-19.2-8.8-36.6-24.8-41.9-45.8c-6.2-24.2,5.2-48.9,21.5-66.5c8.6-9.3,18.7-17,29-24.2
		c11.3-7.8,22.9-15,34.8-21.7c23.4-13.3,47.9-24.6,73.2-33.8c12.5-4.5,25.2-8.5,37.9-12.1c10.8-3.1,21.6-6.1,32-10.3
		c20.2-8,39.3-21.6,44.5-44c4.9-21.1-3.3-44.1-17.7-59.8c-16.6-18.2-41.7-26.1-65.7-27.4c-27-1.4-53.3,5.3-78.6,13.9
		c-27,9.1-53.5,19.6-81.1,27c-27.4,7.3-55.3,12.5-83.4,15.5c-13.8,1.5-28,3.1-41.9,2c-11.6-0.9-23.2-4.4-31.8-12.6
		c-7.3-7.1-11.7-16.8-10.2-27.1c0.3-1.9,3.1-1.1,2.8,0.8c-1.8,12.5,6.7,24,17.1,29.9c12.1,6.8,26.8,6.8,40.3,6
		c29.2-1.8,58.2-6,86.7-12.5c28-6.4,55-15.5,82-25.3c25.6-9.3,51.8-18.3,79.2-20.3c23.7-1.7,48.7,1.7,69.4,14.1
		c18.2,10.9,31.6,29.1,35.8,50c4.2,20.4-1.6,40.9-17,55.2c-16,14.7-37.9,21-58.3,26.8c-25.9,7.4-51.3,16-75.8,27.1
		c-24.9,11.3-48.7,24.7-71.3,40.1c-21.8,14.9-43.3,33.6-50.2,60.2c-3.2,12.4-2.6,25.5,2.8,37.2c4.8,10.4,12.6,19.1,21.8,25.9
		c21.9,16.1,49.4,19.4,75.8,19.7c29.7,0.4,59.3-0.6,89-0.1c60.5,1,120.8,4.7,181,11c15.1,1.6,30.2,3.4,45.2,5.3
		c13.5,1.7,27.1,3.5,40.4,6.6c23.7,5.5,46.7,16.1,61.4,36.1c6.5,8.7,10.6,19,11.7,29.8c1,11.3-1.7,22.6-6.8,32.6
		c-11.3,22.2-32.5,36.4-54.9,45.6c-12,5-24.5,8.7-37,12.5C699.3,588.8,698.6,585.9,700.4,585.4L700.4,585.4z"/>
	<circle class="st1question" cx="132" cy="74.2" r="23.5"/>
	<circle class="st1question" cx="295.1" cy="118.7" r="23.5"/>
	<circle class="st1question" cx="433.2" cy="29.6" r="23.5"/>
	<circle class="st1question" cx="519.4" cy="129.5" r="23.5"/>
	<circle class="st1question" cx="402.8" cy="245.1" r="23.5"/>
	
		<ellipse transform="matrix(0.1602 -0.9871 0.9871 0.1602 -82.9732 504.3383)" class="st1question" cx="254.9" cy="300.9" rx="23.5" ry="23.5"/>
	<circle class="st1question" cx="411.6" cy="388.1" r="23.5"/>
	<circle class="st1question" cx="580.1" cy="437.1" r="23.5"/>
	<circle class="st1question" cx="777" cy="426.3" r="23.5"/>
	<path class="st0question" d="M426.4,72.7c-70.4,0.5-128.1,57.7-129.1,128.1c0,0.7,0,5.2,0,11.2c0,18.3,14.8,33.1,33.1,33.1h0
		c18.3,0,33.1-14.8,33.1-33.1c0,0,0,0,0,0c0-4.1,0-6.9,0-7.1c0-34.6,28.1-62.7,62.7-62.7s62.7,28.1,62.7,62.7
		c0,21.4-10.9,41.3-28.9,52.8l0,0c0,0-47,30.3-61.4,71.8l0,0c-2.5,8.5-3.8,17.3-3.8,26.2c0,3.6,0.2,35.6,0.6,61.5
		c0.3,18.6,15.5,33.5,34.1,33.5h0c18.8,0,34.1-15.3,34.1-34.1c0-0.1,0-0.1,0-0.2c-0.1-23.7-0.2-51.4-0.2-53.4
		c0-25.5,24.6-50.9,44.8-67.5c23.3-19.1,40-45.1,46.8-74.4c1.5-6,2.3-12.2,2.4-18.4c0-71.8-58.2-130-130-130
		C427,72.7,426.7,72.7,426.4,72.7z"/>
	<path class="st2question" d="M834.8,589.2H9.8c-0.6,0-1.2-0.5-1.2-1.2c0-0.6,0.5-1.2,1.2-1.2h825c0.6,0,1.2,0.5,1.2,1.2
		C836,588.6,835.5,589.1,834.8,589.2z"/>
	<path class="st2question" d="M339.7,229.5L339.7,229.5c-18.3,0-33.1-14.8-33.1-33.1c0-6,0-10.5,0-11.2c0.3-20.5,5.4-40.6,15-58.7
		c-15.8,21.6-24.5,47.6-24.8,74.4c0,0.7,0,5.2,0,11.2c0,18.3,14.8,33.1,33.1,33.1l0,0c14.8,0,27.8-9.8,31.8-24.1
		C355.7,226.5,347.8,229.5,339.7,229.5z"/>
	<path class="st2question" d="M428.6,142.4c34.6,1.7,61.3,31,59.6,65.6c-0.4,7.6-2.1,15-5.1,22c22.4-26.4,19.3-65.9-7.1-88.4
		c-26.4-22.4-65.9-19.3-88.4,7.1c-4,4.7-7.3,10-9.8,15.7C390.5,149.5,409.2,141.4,428.6,142.4z"/>
	<path class="st2question" d="M438.8,435.2L438.8,435.2c-18.6,0-33.8-14.9-34.1-33.5c-0.4-25.9-0.6-57.8-0.6-61.5c0-8.9,1.3-17.7,3.8-26.2
		l0,0c1.5-4.3,3.3-8.4,5.4-12.4c-6.4,8.6-11.5,18-15.2,28.1l0,0c-2.5,8.5-3.8,17.3-3.8,26.2c0,3.6,0.2,35.6,0.6,61.5
		c0.3,18.6,15.5,33.5,34.1,33.5l0,0c15.1,0,28.5-10,32.7-24.5C455.4,432,447.3,435.2,438.8,435.2z"/>
	<polygon class="st3question" points="132.6,576.7 144.6,576.7 150.3,530.4 132.6,530.4 	"/>
	<path class="st4question" d="M167.8,587.9l-37.7,0l0,0l0-14.6l0,0l23.2,0C161.3,573.3,167.8,579.8,167.8,587.9L167.8,587.9L167.8,587.9z"/>
	<polygon class="st3question" points="89.5,576.7 101.5,576.7 107.2,530.4 89.5,530.4 	"/>
	<path class="st4question" d="M124.7,587.9l-37.7,0l0,0l0-14.6l0,0l23.2,0C118.2,573.3,124.7,579.8,124.7,587.9L124.7,587.9L124.7,587.9z"/>
	<path class="st4question" d="M100,562.5l-11.7-0.6c-2.5-0.1-4.5-2.3-4.3-4.8c0,0,0,0,0-0.1l14-155.2l64.6,17.4l6.2-1.7l-19.5,137.4
		c-0.3,2.1-2.1,3.7-4.3,3.9l-12.6,0.6c-2.5,0.1-4.7-1.8-4.8-4.3c0-0.1,0-0.3,0-0.4l2.3-82.5c0-0.8-0.6-1.5-1.5-1.6
		c-0.7,0-1.4,0.5-1.5,1.2l-22.1,87c-0.4,2.1-2.3,3.7-4.5,3.6C100.2,562.5,100.1,562.5,100,562.5z"/>
	<circle class="st3question" cx="134.8" cy="250.7" r="24.1"/>
	<path class="st5question" d="M94.7,321.4l2.6,57.1l1,20.8c0.1,1.8,1.3,3.5,3,4.1l62,22.5c0.5,0.2,1,0.3,1.6,0.3c2.5,0,4.6-2,4.6-4.5
		c0-0.1,0-0.1,0-0.2L167,318.8c-0.3-17.4-13-32-30.1-34.9c-0.6-0.1-1.2-0.2-1.8-0.3c-10.4-1.3-20.9,2.1-28.6,9.2
		C98.5,300.1,94.2,310.6,94.7,321.4L94.7,321.4z"/>
	<path class="st3question" d="M193,414.4c-5.2-1.6-8.1-7.1-6.5-12.3c0.3-0.9,0.7-1.8,1.2-2.6l-21-28l18.2-1.1l17.2,26.7
		c4.3,3.3,5.1,9.6,1.8,13.9C201.3,414.3,197,415.7,193,414.4z"/>
	<path class="st5question" d="M178.2,394.5c-1.1-0.5-2-1.3-2.5-2.5L144,316.5c-2.6-6.2,0.3-13.4,6.5-16c6.2-2.6,13.4,0.3,16,6.5c0,0,0,0,0,0
		l31.7,75.5c1,2.3-0.1,5-2.4,6l-14.1,5.9C180.6,394.9,179.3,394.9,178.2,394.5L178.2,394.5z"/>
	<path class="st2question" d="M127,391.8l30.4-58.3c1.2-2.3,4.1-3.2,6.4-2l44.2,23.1c2.3,1.2,3.2,4.1,2,6.4l-30.4,58.3
		c-1.2,2.3-4.1,3.2-6.4,2l-44.2-23.1C126.7,397,125.8,394.1,127,391.8z"/>
	<path class="st3question" d="M147.5,365.2c-1.9-5.1-7.6-7.7-12.7-5.8c-0.9,0.3-1.7,0.8-2.5,1.4l-29.2-19.3l0,18.2l27.7,15.6
		c3.6,4.1,9.9,4.5,14,1C147.8,373.4,148.9,369,147.5,365.2L147.5,365.2z"/>
	<path class="st5question" d="M110.6,369.2l-23.8-18.9c-8.8-3-13.5-12.5-10.6-21.3c0.6-1.9,1.6-3.7,2.9-5.3l21.6-28.4
		c3.5-4.2,9.7-4.8,13.9-1.4c3.4,2.8,4.5,7.4,2.9,11.5l-17.1,28l25.2,11.9c2.3,1.1,3.3,3.8,2.2,6.1c-0.1,0.2-0.2,0.3-0.3,0.5
		l-10.2,16.1c-0.7,1.1-1.8,1.8-3.1,2.1c0,0-0.1,0-0.1,0C112.9,370.4,111.6,370,110.6,369.2z"/>
	<path class="st4question" d="M116.6,266.9c-0.4-1.1,0.2-2.3,1.3-2.7c0.2-0.1,0.3-0.1,0.5-0.1c1.3,0.1,2.5,0.7,3.4,1.7c0.9,1,1.9,1.9,3,2.6
		c1.2,0.6,2.7,0.5,3.4-0.6c0.6-1.1,0.2-2.5-0.2-3.7c-1-3.1-1.5-6.3-1.6-9.6c-0.1-3.6,0.4-7.4,2.4-10.2c2.6-3.6,7.2-5,11.6-4.9
		c4.4,0.1,8.7,1.5,13,2.3c1.5,0.3,3.3,0.4,4.3-0.7c1.1-1.2,0.7-3.2,0.2-4.9c-1.2-4.3-2.4-8.8-5.2-12.3c-3-3.6-7.2-6-11.8-6.7
		c-4.5-0.6-9,0-13.2,1.5c-6.9,2.2-12.9,6.4-17.3,12.1c-4.5,6.1-6.5,13.7-5.5,21.2c1,6.5,4.5,12.4,9.7,16.5L116.6,266.9z"/>
	<path class="st2question" d="M421.3,576.9c-22.8-9.9-33.2-36.5-23.3-59.3c1.7-3.9,3.9-7.5,6.6-10.7c-20.1,14.7-24.5,42.9-9.8,63
		c14.7,20.1,42.9,24.5,63,9.8c3-2.2,5.8-4.8,8.2-7.7C452.9,581.4,436,583.3,421.3,576.9z"/>
</g>
</svg>
