<svg class="startnow mobilecol img-fluid" version="1.1" id="e2165270-d70d-4354-9ac9-1848d055b0c2"
	 xmlns="http://www.w3.org/2000/svg" xmlns:xlink="http://www.w3.org/1999/xlink" x="0px" y="0px" viewBox="0 0 971.4 662"
	 style="enable-background:new 0 0 971.4 662;" xml:space="preserve">
<style type="text/css">
	.st0start{fill:#E0E0E0;}
	.st1start{opacity:0.7;}
	.st2start{fill:url(#SVGID_1_);}
	.st3start{fill:#F50057;}
	.st4start{fill:#72351C;}
	.st5start{opacity:0.1;enable-background:new    ;}
	.st6start{fill:#FDA57D;}
	.st7start{fill:url(#SVGID_2_);}
	.st8start{fill:#535461;}
	.st9start{fill:#FFFFFF;}
	.st1start0{fill:url(#SVGID_3_);}
	.st1start1{fill:#EEEEEE;}
	.st1start2{fill:none;}
	.st1start3{font-family:'MyriadPro-Regular';}
	.st1start4{font-size:12px;}
	.st1start5{fill:#3F3D56;}
</style>
<g id="startman">
	<rect y="615.6" class="st0start" width="971.4" height="32.9"/>
	<g class="st1start">
		
			<linearGradient id="SVGID_1_" gradientUnits="userSpaceOnUse" x1="600.4298" y1="2486.3" x2="600.4298" y2="1955.2001" gradientTransform="matrix(1 0 0 1 -114.2798 -1955)">
			<stop  offset="0" style="stop-color:#808080;stop-opacity:0.25"/>
			<stop  offset="0.5351" style="stop-color:#808080;stop-opacity:0.12"/>
			<stop  offset="1" style="stop-color:#808080;stop-opacity:0.1"/>
		</linearGradient>
		<path class="st2start" d="M639,395.3c-10.4-37.8-69.4-65.4-113.9-71.5c0-0.3,0-0.6,0-0.8v-32.4h0.1v-1.2c31.9-11.9,56.6-37.8,67-70.2
			c2.7-5,5.1-10.1,7.1-15.4c4.7-1.7,8.3-9.5,8.3-18.9c0-3.2-0.4-6.4-1.3-9.5c0.6-4.8,0.9-9.6,0.9-14.4c0-34.1-14.4-66.6-39.7-89.4
			c0.4-1.9,0.5-3.9,0.4-5.9c-1-15.5-17.6-26.1-33.1-26.8c8.4-9.5,10.5-23,5.5-34.6c-9.9,14.4-30.3,16-47.8,16.1
			c7.6-2.9,11-13.4,6.6-20.2c-18.3,24.5-54,29.1-75.8,50.6c-4.7,4.7-8.7,10.1-11.8,16.1c-28.7,22.8-45.3,57.5-45.3,94.1
			c0,4.8,0.3,9.5,0.9,14.3c-0.9,3.1-1.4,6.4-1.4,9.6c0,9.4,3.6,17.3,8.4,19c2,5.3,4.4,10.5,7.2,15.5c10.3,32.3,34.8,58,66.5,70v33.8
			c0,0.3,0,0.5,0,0.8c-44.6,6-104.1,33.8-114.4,71.9c-8.9,32.9-18.4,69-23.2,90.2c40.6,28.5,125.7,45.2,179,45.2
			c50.7,0,133.5-15.1,172.9-41.1C658.1,466.7,648.3,429,639,395.3z"/>
	</g>
	<path class="st3start" d="M489.3,521.7c48.9,0,128.8-14.6,166.8-39.6c-4.1-22.5-13.6-58.9-22.6-91.4c-11.4-41.5-83.5-70.2-126.5-70.2
		h-41.4c-43.1,0-115.4,28.9-126.6,70.6c-8.6,31.7-17.8,66.6-22.3,87.1C355.8,505.6,437.9,521.7,489.3,521.7z"/>
	<circle class="st4start" cx="486.8" cy="164.5" r="116.2"/>
	<path class="st5start" d="M449.3,261.3h74.5l0,0v59.6c0,20.6-16.7,37.2-37.2,37.2l0,0c-20.6,0-37.2-16.7-37.2-37.2L449.3,261.3
		L449.3,261.3z"/>
	<path class="st6start" d="M460,258.6h53.1c5.9,0,10.7,4.8,10.7,10.7v48.9c0,20.6-16.7,37.2-37.2,37.2l0,0c-20.6,0-37.2-16.7-37.2-37.2
		v-48.9C449.3,263.3,454.1,258.6,460,258.6z"/>
	<path class="st5start" d="M449.4,289.4c24,9,50.4,9,74.5,0.2v-9.1h-74.5L449.4,289.4L449.4,289.4z"/>
	<circle class="st6start" cx="486.8" cy="187.7" r="106.8"/>
	<path class="st5start" d="M410.8,90.6c0,0,45,91.3,171.9,38.3l-29.5-46.3l-52.4-18.8L410.8,90.6z"/>
	<path class="st4start" d="M410.8,89.2c0,0,45,91.3,171.9,38.3l-29.5-46.3l-52.4-18.8L410.8,89.2z"/>
	<path class="st4start" d="M410.4,83.1c3-9.4,8.3-17.9,15.3-24.9c21-20.8,55.4-25.1,73.1-48.8c4.2,6.6,1,16.7-6.3,19.5
		c16.9-0.1,36.5-1.6,46.1-15.5c4.8,11.2,2.7,24.2-5.3,33.4c15,0.7,31,10.9,32,25.8c0.6,10-5.6,19.4-13.8,25.1s-18.1,8.3-27.9,10.5
		C494.9,114.5,391.8,140.9,410.4,83.1z"/>
	<path class="st4start" d="M593.6,188.6h-2.8l-55.1,49c-53-24.8-92,0-92,0l-57.7-47l-5.8,0.7c1.7,58.9,50.8,105.4,109.7,103.7
		C547.5,293.4,593.4,246.3,593.6,188.6z M486.6,256.4c-20.8,0-37.6-4.2-37.6-9.4s16.8-9.4,37.6-9.4s37.6,4.2,37.6,9.4
		S507.4,256.4,486.6,256.4z"/>
	<ellipse class="st6start" cx="380" cy="187.6" rx="9.9" ry="18.6"/>
	<ellipse class="st6start" cx="593.5" cy="187.6" rx="9.9" ry="18.6"/>
	<g class="st1start">
		
			<linearGradient id="SVGID_2_" gradientUnits="userSpaceOnUse" x1="485.75" y1="2451.6001" x2="485.75" y2="2213.7" gradientTransform="matrix(1 0 0 1 0 -1836)">
			<stop  offset="0" style="stop-color:#808080;stop-opacity:0.25"/>
			<stop  offset="0.5351" style="stop-color:#808080;stop-opacity:0.12"/>
			<stop  offset="1" style="stop-color:#808080;stop-opacity:0.1"/>
		</linearGradient>
		<path class="st7start" d="M293.7,377.7h384.1c8,0,14.5,6.5,14.5,14.5v208.9c0,8-6.5,14.5-14.5,14.5H293.7c-8,0-14.5-6.5-14.5-14.5
			V392.2C279.2,384.2,285.7,377.7,293.7,377.7z"/>
	</g>
	<path class="st8start" d="M313.5,382.1H658c14.8,0,26.8,12,26.8,26.8v179.8c0,14.8-12,26.8-26.8,26.8H313.5c-14.8,0-26.8-12-26.8-26.8
		V408.9C286.6,394.1,298.7,382.1,313.5,382.1z"/>
	<circle class="st9start" cx="485.7" cy="498.8" r="13.5"/>
	<rect x="41.2" y="648.5" class="st0start" width="889.1" height="13.5"/>
	<rect x="41.2" y="648.5" class="st5start" width="889.1" height="4.5"/>
</g>
<a href="#start">
	<g id="startcafea_1_" class="startcafea">
		<a>
			<g id="startcafea" >
				<g class="st1start">
					
						<linearGradient id="SVGID_3_" gradientUnits="userSpaceOnUse" x1="979.4298" y1="2574.6001" x2="979.4298" y2="2482.8" gradientTransform="matrix(1 0 0 1 -114.2798 -1955)">
						<stop  offset="0" style="stop-color:#808080;stop-opacity:0.25"/>
						<stop  offset="0.5351" style="stop-color:#808080;stop-opacity:0.12"/>
						<stop  offset="1" style="stop-color:#808080;stop-opacity:0.1"/>
					</linearGradient>
					<path class="st1start0" d="M895.5,544.2v-16.4h-82v75.8c0,8.8,7.2,16,16,16l0,0h50c8.8,0,16-7.2,16-16l0,0v-16.8
						c11.8,0,21.3-9.6,21.3-21.4C916.7,553.7,907.2,544.2,895.5,544.2L895.5,544.2z M895.5,578.6v-26.2c7.2,0,13.1,5.9,13.1,13.1
						S902.7,578.6,895.5,578.6z"/>
				</g>
				<path class="st3start" d="M892.9,546.7c-10.7,0-19.5,8.7-19.5,19.5c0,10.7,8.7,19.5,19.5,19.5c10.7,0,19.5-8.7,19.5-19.5
					S903.6,546.7,892.9,546.7z M892.9,578.2c-6.6,0-12-5.4-12-12s5.4-12,12-12s12,5.4,12,12l0,0C904.8,572.8,899.5,578.2,892.9,578.2
					z"/>
				<path class="st5start" d="M892.9,546.7c-10.7,0-19.5,8.7-19.5,19.5c0,10.7,8.7,19.5,19.5,19.5c10.7,0,19.5-8.7,19.5-19.5
					S903.6,546.7,892.9,546.7z M892.9,578.2c-6.6,0-12-5.4-12-12s5.4-12,12-12s12,5.4,12,12l0,0C904.8,572.8,899.5,578.2,892.9,578.2
					z"/>
				<path class="st3start" d="M818,531.8h74.8l0,0v74.1c0,5.4-4.4,9.8-9.8,9.8l0,0h-55.3c-5.4,0-9.8-4.4-9.8-9.8l0,0L818,531.8L818,531.8z
					"/>
				<path class="st5start" d="M879.4,531.8V601c0,8.1-6.5,14.6-14.6,14.6h7.5c8.1,0,14.6-6.5,14.6-14.6v-69.2H879.4z"/>
				<path class="st1start1" d="M832.8,476c-1.3,0.2-2.7,0.6-3.3,1.7c-1,1.8,0.8,3.8,2.4,5c3,2.3,6.2,4.5,8.2,7.6s2.7,7.6,0.5,10.6
					c-2.9,3.9-9.9,4.8-10.5,9.7c-0.4,3.1,2.3,5.8,5,7.3c6.7,3.9,15.4,4.9,20.3,10.9c2-4.2,6.5-6.6,11-7.6s9.2-0.9,13.7-1.6
					c1.5-0.2,3.1-0.7,3.8-2c1.3-2.6-2.4-5.7-1.1-8.3c1-2,3.8-1.8,5.8-2.6c3.3-1.3,4.7-5.6,3.8-9s-3.6-6.1-6.4-8.4
					c-7.6-6-16.7-9.5-25.9-12c-4.3-1.2-9.3-3-13.8-3.2C841.9,473.9,837,475.3,832.8,476z"/>
			</g>
		</a>
		<rect x="828.8" y="572.6" class="st1start2" width="54" height="34"/>
		<text transform="matrix(1 0 0 1 828.7939 581.1455)" class="st1start3 st1start4">start now</text>
	</g>
</a>
<a href="#start">
	<g id="startplant_1_" class="startplant">
		<a>
			<g id="startplant">
				<path class="st1start5" d="M145.8,537.8c-7,26.6-31.5,43.2-31.5,43.2s-13.2-26.5-6.2-53.1s31.5-43.2,31.5-43.2
					S152.8,511.2,145.8,537.8z"/>
				<path class="st3start" d="M135.2,532.2c-19.6,19.3-21.8,48.8-21.8,48.8s29.5-1.8,49.1-21.2s21.8-48.8,21.8-48.8
					S154.8,512.9,135.2,532.2z"/>
				<path class="st3start" d="M83.3,573.2h76.5c8.4,0,15.2,6.8,15.2,15.2v15.1c0,8.4-6.8,15.2-15.2,15.2H83.3c-8.4,0-15.2-6.8-15.2-15.2
					v-15.1C68.1,580,74.9,573.2,83.3,573.2z"/>
			</g>
		</a>
		<rect x="103.5" y="590.3" class="st1start2" width="54" height="34"/>
		<text transform="matrix(1 0 0 1 103.4707 598.8115)" class="st1start3 st1start4">go up</text>
	</g>
</a>
</svg>
